<svg width="358" height="173" viewBox="0 0 358 173" fill="none" xmlns="http://www.w3.org/2000/svg">
<path d="M20.733 56.1023V14.9659H32.1818V56.1023H20.733ZM5.875 41.2727V29.8239H47.0114V41.2727H5.875Z" fill="#6111CA"/>
<path d="M100.143 15.3636V25.5909H72.6151V15.3636H100.143ZM78.3821 4.90909H92.2741V45.2784C92.2741 46.1307 92.4067 46.822 92.6719 47.3523C92.956 47.8636 93.3632 48.233 93.8935 48.4602C94.4238 48.6686 95.0582 48.7727 95.7969 48.7727C96.3272 48.7727 96.8859 48.7254 97.473 48.6307C98.0791 48.517 98.5336 48.4223 98.8366 48.3466L100.939 58.375C100.276 58.5644 99.3385 58.8011 98.1264 59.0852C96.9332 59.3693 95.5033 59.5492 93.8366 59.625C90.5791 59.7765 87.7855 59.3977 85.456 58.4886C83.1454 57.5606 81.3745 56.1212 80.1435 54.1705C78.9313 52.2197 78.3442 49.767 78.3821 46.8125V4.90909ZM122.061 34.1136V59H108.169V0.81818H121.607V23.375H122.089C123.074 20.6856 124.684 18.5833 126.919 17.0682C129.173 15.553 131.929 14.7955 135.186 14.7955C138.254 14.7955 140.925 15.4773 143.197 16.8409C145.47 18.1856 147.232 20.089 148.482 22.5511C149.75 25.0133 150.375 27.892 150.357 31.1875V59H136.464V33.9148C136.483 31.4905 135.877 29.5966 134.646 28.233C133.415 26.8693 131.682 26.1875 129.447 26.1875C127.989 26.1875 126.701 26.5095 125.584 27.1534C124.485 27.7784 123.624 28.678 122.999 29.8523C122.393 31.0265 122.08 32.447 122.061 34.1136ZM171.33 59.7386C168.545 59.7386 166.074 59.2746 163.915 58.3466C161.775 57.3996 160.08 55.9792 158.83 54.0852C157.598 52.1723 156.983 49.7765 156.983 46.8977C156.983 44.4735 157.409 42.428 158.261 40.7614C159.114 39.0947 160.288 37.7405 161.784 36.6989C163.28 35.6572 165.004 34.8712 166.955 34.3409C168.905 33.7917 170.989 33.4223 173.205 33.233C175.686 33.0057 177.684 32.7689 179.199 32.5227C180.714 32.2576 181.813 31.8883 182.494 31.4148C183.195 30.9223 183.545 30.2311 183.545 29.3409V29.1989C183.545 27.7405 183.044 26.6136 182.04 25.8182C181.036 25.0227 179.682 24.625 177.977 24.625C176.14 24.625 174.663 25.0227 173.545 25.8182C172.428 26.6136 171.718 27.7121 171.415 29.1136L158.602 28.6591C158.981 26.0076 159.956 23.6402 161.528 21.5568C163.119 19.4545 165.297 17.8068 168.062 16.6136C170.847 15.4015 174.189 14.7955 178.091 14.7955C180.875 14.7955 183.441 15.1269 185.79 15.7898C188.138 16.4337 190.184 17.3807 191.926 18.6307C193.669 19.8617 195.013 21.3769 195.96 23.1761C196.926 24.9754 197.409 27.0303 197.409 29.3409V59H184.341V52.9205H184C183.223 54.3977 182.229 55.6477 181.017 56.6705C179.824 57.6932 178.413 58.4602 176.784 58.9716C175.174 59.483 173.356 59.7386 171.33 59.7386ZM175.619 50.6477C177.116 50.6477 178.46 50.3447 179.653 49.7386C180.866 49.1326 181.831 48.2992 182.551 47.2386C183.271 46.1591 183.631 44.9091 183.631 43.4886V39.3409C183.233 39.5492 182.75 39.7386 182.182 39.9091C181.633 40.0795 181.027 40.2405 180.364 40.392C179.701 40.5436 179.019 40.6761 178.318 40.7898C177.617 40.9034 176.945 41.0076 176.301 41.1023C174.994 41.3106 173.877 41.6326 172.949 42.0682C172.04 42.5038 171.339 43.072 170.847 43.7727C170.373 44.4545 170.136 45.2689 170.136 46.2159C170.136 47.6553 170.648 48.7538 171.67 49.5114C172.712 50.2689 174.028 50.6477 175.619 50.6477ZM219.795 34.1136V59H205.903V15.3636H219.114V23.375H219.597C220.563 20.7045 222.21 18.6117 224.54 17.0966C226.869 15.5625 229.644 14.7955 232.864 14.7955C235.932 14.7955 238.593 15.4867 240.847 16.8693C243.119 18.233 244.881 20.1458 246.131 22.608C247.4 25.0511 248.025 27.911 248.006 31.1875V59H234.114V33.9148C234.133 31.4905 233.517 29.5966 232.267 28.233C231.036 26.8693 229.322 26.1875 227.125 26.1875C225.667 26.1875 224.379 26.5095 223.261 27.1534C222.163 27.7784 221.311 28.678 220.705 29.8523C220.117 31.0265 219.814 32.447 219.795 34.1136ZM28.2045 112.364V122.591H0.136364V112.364H28.2045ZM5.98864 156V110.148C5.98864 106.777 6.62311 103.983 7.89205 101.767C9.16099 99.5322 10.9223 97.8655 13.1761 96.767C15.4299 95.6496 18.0341 95.0909 20.9886 95.0909C22.9205 95.0909 24.7386 95.2424 26.4432 95.5455C28.1667 95.8295 29.4451 96.0852 30.2784 96.3125L28.0625 106.483C27.5511 106.312 26.9261 106.17 26.1875 106.057C25.4678 105.943 24.786 105.886 24.142 105.886C22.5133 105.886 21.3958 106.246 20.7898 106.966C20.1837 107.686 19.8807 108.67 19.8807 109.92V156H5.98864ZM53.8509 156.824C49.2675 156.824 45.3281 155.886 42.0327 154.011C38.7562 152.117 36.2277 149.485 34.4474 146.114C32.6861 142.723 31.8054 138.794 31.8054 134.324C31.8054 129.835 32.6861 125.905 34.4474 122.534C36.2277 119.144 38.7562 116.511 42.0327 114.636C45.3281 112.742 49.2675 111.795 53.8509 111.795C58.4342 111.795 62.3641 112.742 65.6406 114.636C68.9361 116.511 71.4645 119.144 73.2259 122.534C75.0062 125.905 75.8963 129.835 75.8963 134.324C75.8963 138.794 75.0062 142.723 73.2259 146.114C71.4645 149.485 68.9361 152.117 65.6406 154.011C62.3641 155.886 58.4342 156.824 53.8509 156.824ZM53.9361 146.341C55.6027 146.341 57.0137 145.83 58.169 144.807C59.3243 143.784 60.205 142.364 60.8111 140.545C61.4361 138.727 61.7486 136.625 61.7486 134.239C61.7486 131.814 61.4361 129.693 60.8111 127.875C60.205 126.057 59.3243 124.636 58.169 123.614C57.0137 122.591 55.6027 122.08 53.9361 122.08C52.2126 122.08 50.7543 122.591 49.5611 123.614C48.3868 124.636 47.4872 126.057 46.8622 127.875C46.2562 129.693 45.9531 131.814 45.9531 134.239C45.9531 136.625 46.2562 138.727 46.8622 140.545C47.4872 142.364 48.3868 143.784 49.5611 144.807C50.7543 145.83 52.2126 146.341 53.9361 146.341ZM96.9048 97.8182V156H83.0128V97.8182H96.9048ZM119.639 97.8182V156H105.747V97.8182H119.639ZM148.851 156.824C144.268 156.824 140.328 155.886 137.033 154.011C133.756 152.117 131.228 149.485 129.447 146.114C127.686 142.723 126.805 138.794 126.805 134.324C126.805 129.835 127.686 125.905 129.447 122.534C131.228 119.144 133.756 116.511 137.033 114.636C140.328 112.742 144.268 111.795 148.851 111.795C153.434 111.795 157.364 112.742 160.641 114.636C163.936 116.511 166.464 119.144 168.226 122.534C170.006 125.905 170.896 129.835 170.896 134.324C170.896 138.794 170.006 142.723 168.226 146.114C166.464 149.485 163.936 152.117 160.641 154.011C157.364 155.886 153.434 156.824 148.851 156.824ZM148.936 146.341C150.603 146.341 152.014 145.83 153.169 144.807C154.324 143.784 155.205 142.364 155.811 140.545C156.436 138.727 156.749 136.625 156.749 134.239C156.749 131.814 156.436 129.693 155.811 127.875C155.205 126.057 154.324 124.636 153.169 123.614C152.014 122.591 150.603 122.08 148.936 122.08C147.213 122.08 145.754 122.591 144.561 123.614C143.387 124.636 142.487 126.057 141.862 127.875C141.256 129.693 140.953 131.814 140.953 134.239C140.953 136.625 141.256 138.727 141.862 140.545C142.487 142.364 143.387 143.784 144.561 144.807C145.754 145.83 147.213 146.341 148.936 146.341ZM185.229 156L173.865 112.364H187.814L193.695 140.318H194.064L200.371 112.364H213.979L220.456 140.119H220.825L226.536 112.364H240.484L229.092 156H214.234L207.416 130.574H206.933L200.115 156H185.229ZM291.401 137.165V112.364H305.264V156H292.026V147.875H291.571C290.605 150.545 288.957 152.667 286.628 154.239C284.317 155.792 281.524 156.568 278.247 156.568C275.274 156.568 272.66 155.886 270.406 154.523C268.152 153.159 266.401 151.256 265.151 148.812C263.901 146.35 263.266 143.472 263.247 140.176V112.364H277.139V137.449C277.158 139.816 277.783 141.682 279.014 143.045C280.245 144.409 281.921 145.091 284.043 145.091C285.425 145.091 286.666 144.788 287.764 144.182C288.882 143.557 289.762 142.657 290.406 141.483C291.069 140.29 291.401 138.85 291.401 137.165ZM314.107 172.364V112.364H327.857V119.835H328.283C328.851 118.509 329.656 117.231 330.697 116C331.758 114.769 333.103 113.765 334.732 112.989C336.379 112.193 338.349 111.795 340.641 111.795C343.671 111.795 346.502 112.591 349.135 114.182C351.786 115.773 353.927 118.225 355.555 121.54C357.184 124.854 357.999 129.078 357.999 134.21C357.999 139.153 357.213 143.292 355.641 146.625C354.088 149.958 351.985 152.458 349.334 154.125C346.701 155.792 343.775 156.625 340.555 156.625C338.358 156.625 336.455 156.265 334.845 155.545C333.235 154.826 331.881 153.879 330.783 152.705C329.703 151.53 328.87 150.271 328.283 148.926H327.999V172.364H314.107ZM327.714 134.182C327.714 136.53 328.027 138.576 328.652 140.318C329.296 142.061 330.214 143.415 331.408 144.381C332.62 145.328 334.069 145.801 335.754 145.801C337.459 145.801 338.908 145.328 340.101 144.381C341.294 143.415 342.194 142.061 342.8 140.318C343.425 138.576 343.737 136.53 343.737 134.182C343.737 131.833 343.425 129.797 342.8 128.074C342.194 126.35 341.294 125.015 340.101 124.068C338.927 123.121 337.478 122.648 335.754 122.648C334.05 122.648 332.601 123.112 331.408 124.04C330.214 124.968 329.296 126.294 328.652 128.017C328.027 129.741 327.714 131.795 327.714 134.182Z" fill="white"/>
</svg>
