<svg width="374" height="47" viewBox="0 0 374 47" fill="none" xmlns="http://www.w3.org/2000/svg">
<path d="M9.03977 35.2614V10.5795H15.9091V35.2614H9.03977ZM0.125 26.3636V19.4943H24.8068V26.3636H0.125Z" fill="#6111CA"/>
<path d="M56.6861 10.8182V16.9545H40.169V10.8182H56.6861ZM43.6293 4.54545H51.9645V28.767C51.9645 29.2784 52.044 29.6932 52.2031 30.0114C52.3736 30.3182 52.6179 30.5398 52.9361 30.6761C53.2543 30.8011 53.6349 30.8636 54.0781 30.8636C54.3963 30.8636 54.7315 30.8352 55.0838 30.7784C55.4474 30.7102 55.7202 30.6534 55.902 30.608L57.1634 36.625C56.7656 36.7386 56.2031 36.8807 55.4759 37.0511C54.7599 37.2216 53.902 37.3295 52.902 37.375C50.9474 37.4659 49.2713 37.2386 47.8736 36.6932C46.4872 36.1364 45.4247 35.2727 44.6861 34.1023C43.9588 32.9318 43.6065 31.4602 43.6293 29.6875V4.54545ZM69.8366 22.0682V37H61.5014V2.09091H69.5639V15.625H69.8537C70.4446 14.0114 71.4105 12.75 72.7514 11.8409C74.1037 10.9318 75.7571 10.4773 77.7116 10.4773C79.5526 10.4773 81.1548 10.8864 82.5185 11.7045C83.8821 12.5114 84.9389 13.6534 85.6889 15.1307C86.4503 16.608 86.8253 18.3352 86.8139 20.3125V37H78.4787V21.9489C78.4901 20.4943 78.1264 19.358 77.3878 18.5398C76.6491 17.7216 75.6094 17.3125 74.2685 17.3125C73.3935 17.3125 72.6207 17.5057 71.9503 17.892C71.2912 18.267 70.7741 18.8068 70.3991 19.5114C70.0355 20.2159 69.848 21.0682 69.8366 22.0682ZM99.3977 37.4432C97.7273 37.4432 96.2443 37.1648 94.9489 36.608C93.6648 36.0398 92.6477 35.1875 91.8977 34.0511C91.1591 32.9034 90.7898 31.4659 90.7898 29.7386C90.7898 28.2841 91.0455 27.0568 91.5568 26.0568C92.0682 25.0568 92.7727 24.2443 93.6705 23.6193C94.5682 22.9943 95.6023 22.5227 96.7727 22.2045C97.9432 21.875 99.1932 21.6534 100.523 21.5398C102.011 21.4034 103.21 21.2614 104.119 21.1136C105.028 20.9545 105.688 20.733 106.097 20.4489C106.517 20.1534 106.727 19.7386 106.727 19.2045V19.1193C106.727 18.2443 106.426 17.5682 105.824 17.0909C105.222 16.6136 104.409 16.375 103.386 16.375C102.284 16.375 101.398 16.6136 100.727 17.0909C100.057 17.5682 99.6307 18.2273 99.4489 19.0682L91.7614 18.7955C91.9886 17.2045 92.5739 15.7841 93.517 14.5341C94.4716 13.2727 95.7784 12.2841 97.4375 11.5682C99.108 10.8409 101.114 10.4773 103.455 10.4773C105.125 10.4773 106.665 10.6761 108.074 11.0739C109.483 11.4602 110.71 12.0284 111.756 12.7784C112.801 13.517 113.608 14.4261 114.176 15.5057C114.756 16.5852 115.045 17.8182 115.045 19.2045V37H107.205V33.3523H107C106.534 34.2386 105.938 34.9886 105.21 35.6023C104.494 36.2159 103.648 36.6761 102.67 36.983C101.705 37.2898 100.614 37.4432 99.3977 37.4432ZM101.972 31.9886C102.869 31.9886 103.676 31.8068 104.392 31.4432C105.119 31.0795 105.699 30.5795 106.131 29.9432C106.563 29.2955 106.778 28.5455 106.778 27.6932V25.2045C106.54 25.3295 106.25 25.4432 105.909 25.5455C105.58 25.6477 105.216 25.7443 104.818 25.8352C104.42 25.9261 104.011 26.0057 103.591 26.0739C103.17 26.142 102.767 26.2045 102.381 26.2614C101.597 26.3864 100.926 26.5795 100.369 26.8409C99.8239 27.1023 99.4034 27.4432 99.108 27.8636C98.8239 28.2727 98.6818 28.7614 98.6818 29.3295C98.6818 30.1932 98.9886 30.8523 99.6023 31.3068C100.227 31.7614 101.017 31.9886 101.972 31.9886ZM128.477 22.0682V37H120.142V10.8182H128.068V15.625H128.358C128.938 14.0227 129.926 12.767 131.324 11.858C132.722 10.9375 134.386 10.4773 136.318 10.4773C138.159 10.4773 139.756 10.892 141.108 11.7216C142.472 12.5398 143.528 13.6875 144.278 15.1648C145.04 16.6307 145.415 18.3466 145.403 20.3125V37H137.068V21.9489C137.08 20.4943 136.71 19.358 135.96 18.5398C135.222 17.7216 134.193 17.3125 132.875 17.3125C132 17.3125 131.227 17.5057 130.557 17.892C129.898 18.267 129.386 18.8068 129.023 19.5114C128.67 20.2159 128.489 21.0682 128.477 22.0682ZM175.757 10.8182V16.9545H158.916V10.8182H175.757ZM162.428 37V9.48864C162.428 7.46591 162.808 5.78977 163.57 4.46023C164.331 3.11932 165.388 2.11932 166.74 1.46023C168.092 0.789771 169.655 0.454543 171.428 0.454543C172.587 0.454543 173.678 0.545453 174.7 0.727273C175.734 0.897727 176.501 1.05114 177.001 1.1875L175.672 7.28977C175.365 7.1875 174.99 7.10227 174.547 7.03409C174.115 6.96591 173.706 6.93182 173.32 6.93182C172.342 6.93182 171.672 7.14773 171.308 7.57955C170.945 8.01136 170.763 8.60227 170.763 9.35227V37H162.428ZM191.145 37.4943C188.395 37.4943 186.031 36.9318 184.054 35.8068C182.088 34.6705 180.571 33.0909 179.503 31.0682C178.446 29.0341 177.918 26.6761 177.918 23.9943C177.918 21.3011 178.446 18.9432 179.503 16.9205C180.571 14.8864 182.088 13.3068 184.054 12.1818C186.031 11.0455 188.395 10.4773 191.145 10.4773C193.895 10.4773 196.253 11.0455 198.219 12.1818C200.196 13.3068 201.713 14.8864 202.77 16.9205C203.838 18.9432 204.372 21.3011 204.372 23.9943C204.372 26.6761 203.838 29.0341 202.77 31.0682C201.713 33.0909 200.196 34.6705 198.219 35.8068C196.253 36.9318 193.895 37.4943 191.145 37.4943ZM191.196 31.2045C192.196 31.2045 193.043 30.8977 193.736 30.2841C194.429 29.6705 194.957 28.8182 195.321 27.7273C195.696 26.6364 195.884 25.375 195.884 23.9432C195.884 22.4886 195.696 21.2159 195.321 20.125C194.957 19.0341 194.429 18.1818 193.736 17.5682C193.043 16.9545 192.196 16.6477 191.196 16.6477C190.162 16.6477 189.287 16.9545 188.571 17.5682C187.866 18.1818 187.327 19.0341 186.952 20.125C186.588 21.2159 186.406 22.4886 186.406 23.9432C186.406 25.375 186.588 26.6364 186.952 27.7273C187.327 28.8182 187.866 29.6705 188.571 30.2841C189.287 30.8977 190.162 31.2045 191.196 31.2045ZM216.977 2.09091V37H208.642V2.09091H216.977ZM230.618 2.09091V37H222.283V2.09091H230.618ZM248.145 37.4943C245.395 37.4943 243.031 36.9318 241.054 35.8068C239.088 34.6705 237.571 33.0909 236.503 31.0682C235.446 29.0341 234.918 26.6761 234.918 23.9943C234.918 21.3011 235.446 18.9432 236.503 16.9205C237.571 14.8864 239.088 13.3068 241.054 12.1818C243.031 11.0455 245.395 10.4773 248.145 10.4773C250.895 10.4773 253.253 11.0455 255.219 12.1818C257.196 13.3068 258.713 14.8864 259.77 16.9205C260.838 18.9432 261.372 21.3011 261.372 23.9943C261.372 26.6761 260.838 29.0341 259.77 31.0682C258.713 33.0909 257.196 34.6705 255.219 35.8068C253.253 36.9318 250.895 37.4943 248.145 37.4943ZM248.196 31.2045C249.196 31.2045 250.043 30.8977 250.736 30.2841C251.429 29.6705 251.957 28.8182 252.321 27.7273C252.696 26.6364 252.884 25.375 252.884 23.9432C252.884 22.4886 252.696 21.2159 252.321 20.125C251.957 19.0341 251.429 18.1818 250.736 17.5682C250.043 16.9545 249.196 16.6477 248.196 16.6477C247.162 16.6477 246.287 16.9545 245.571 17.5682C244.866 18.1818 244.327 19.0341 243.952 20.125C243.588 21.2159 243.406 22.4886 243.406 23.9432C243.406 25.375 243.588 26.6364 243.952 27.7273C244.327 28.8182 244.866 29.6705 245.571 30.2841C246.287 30.8977 247.162 31.2045 248.196 31.2045ZM269.972 37L263.153 10.8182H271.523L275.051 27.5909H275.273L279.057 10.8182H287.222L291.108 27.4716H291.33L294.756 10.8182H303.125L296.29 37H287.375L283.284 21.7443H282.994L278.903 37H269.972ZM333.675 25.6989V10.8182H341.993V37H334.05V32.125H333.777C333.197 33.7273 332.209 35 330.811 35.9432C329.425 36.875 327.749 37.3409 325.783 37.3409C323.999 37.3409 322.43 36.9318 321.078 36.1136C319.726 35.2955 318.675 34.1534 317.925 32.6875C317.175 31.2102 316.794 29.483 316.783 27.5057V10.8182H325.118V25.8693C325.129 27.2898 325.504 28.4091 326.243 29.2273C326.982 30.0455 327.987 30.4545 329.26 30.4545C330.089 30.4545 330.834 30.2727 331.493 29.9091C332.163 29.5341 332.692 28.9943 333.078 28.2898C333.476 27.5739 333.675 26.7102 333.675 25.6989ZM347.298 46.8182V10.8182H355.548V15.3011H355.804C356.145 14.5057 356.628 13.7386 357.253 13C357.889 12.2614 358.696 11.6591 359.673 11.1932C360.662 10.7159 361.844 10.4773 363.219 10.4773C365.037 10.4773 366.736 10.9545 368.315 11.9091C369.906 12.8636 371.19 14.3352 372.168 16.3239C373.145 18.3125 373.634 20.8466 373.634 23.9261C373.634 26.892 373.162 29.375 372.219 31.375C371.287 33.375 370.026 34.875 368.435 35.875C366.855 36.875 365.099 37.375 363.168 37.375C361.849 37.375 360.707 37.1591 359.741 36.7273C358.776 36.2955 357.963 35.7273 357.304 35.0227C356.656 34.3182 356.156 33.5625 355.804 32.7557H355.634V46.8182H347.298ZM355.463 23.9091C355.463 25.3182 355.651 26.5455 356.026 27.5909C356.412 28.6364 356.963 29.4489 357.679 30.0284C358.406 30.5966 359.276 30.8807 360.287 30.8807C361.31 30.8807 362.179 30.5966 362.895 30.0284C363.611 29.4489 364.151 28.6364 364.514 27.5909C364.889 26.5455 365.077 25.3182 365.077 23.9091C365.077 22.5 364.889 21.2784 364.514 20.2443C364.151 19.2102 363.611 18.4091 362.895 17.8409C362.19 17.2727 361.321 16.9886 360.287 16.9886C359.264 16.9886 358.395 17.267 357.679 17.8239C356.963 18.3807 356.412 19.1761 356.026 20.2102C355.651 21.2443 355.463 22.4773 355.463 23.9091Z" fill="white"/>
</svg>
