<svg width="67" height="28" viewBox="0 0 67 28" fill="none" xmlns="http://www.w3.org/2000/svg">
<path d="M6.77983 18.696V0.184659H11.9318V18.696H6.77983ZM0.09375 12.0227V6.87074H18.6051V12.0227H0.09375Z" fill="#6111CA"/>
<path d="M36.3654 11.5241V0.363636H42.604V20H36.6467V16.3438H36.4421C36.0075 17.5455 35.266 18.5 34.2177 19.2074C33.1779 19.9062 31.9208 20.2557 30.4464 20.2557C29.1083 20.2557 27.9322 19.9489 26.918 19.3352C25.9038 18.7216 25.1154 17.8651 24.5529 16.7656C23.9904 15.6577 23.7049 14.3622 23.6964 12.8793V0.363636H29.9478V11.652C29.9563 12.7173 30.2376 13.5568 30.7915 14.1705C31.3455 14.7841 32.0998 15.0909 33.0543 15.0909C33.6765 15.0909 34.2347 14.9545 34.729 14.6818C35.2319 14.4006 35.6282 13.9957 35.918 13.4673C36.2163 12.9304 36.3654 12.2827 36.3654 11.5241ZM46.5831 27.3636V0.363636H52.7706V3.72585H52.9624C53.218 3.12926 53.5803 2.55398 54.049 2C54.5263 1.44602 55.1314 0.994318 55.8643 0.644886C56.6058 0.286932 57.4922 0.107955 58.5234 0.107955C59.8871 0.107955 61.1612 0.465909 62.3459 1.18182C63.5391 1.89773 64.5021 3.00142 65.2351 4.4929C65.968 5.98437 66.3345 7.88494 66.3345 10.1946C66.3345 12.419 65.9808 14.2812 65.2734 15.7812C64.5746 17.2812 63.6286 18.4062 62.4354 19.1562C61.2507 19.9062 59.9339 20.2812 58.4851 20.2812C57.4964 20.2812 56.6399 20.1193 55.9155 19.7955C55.1911 19.4716 54.5817 19.0455 54.0874 18.517C53.6016 17.9886 53.2266 17.4219 52.9624 16.8168H52.8345V27.3636H46.5831ZM52.7067 10.1818C52.7067 11.2386 52.8473 12.1591 53.1286 12.9432C53.4183 13.7273 53.8317 14.3366 54.3686 14.7713C54.9141 15.1974 55.5661 15.4105 56.3246 15.4105C57.0916 15.4105 57.7436 15.1974 58.2805 14.7713C58.8175 14.3366 59.2223 13.7273 59.495 12.9432C59.7763 12.1591 59.9169 11.2386 59.9169 10.1818C59.9169 9.125 59.7763 8.20881 59.495 7.43324C59.2223 6.65767 58.8175 6.05682 58.2805 5.63068C57.7521 5.20454 57.1001 4.99148 56.3246 4.99148C55.5575 4.99148 54.9055 5.20028 54.3686 5.6179C53.8317 6.03551 53.4183 6.6321 53.1286 7.40767C52.8473 8.18324 52.7067 9.10795 52.7067 10.1818Z" fill="white"/>
</svg>
